<mxfile host="app.diagrams.net" agent="Mozilla/5.0 (Windows NT 10.0; Win64; x64) AppleWebKit/537.36 (KHTML, like Gecko) Chrome/128.0.0.0 YaBrowser/24.10.0.0 Safari/537.36" version="24.8.3">
  <diagram name="Page-1" id="ad52d381-51e7-2e0d-a935-2d0ddd2fd229">
    <mxGraphModel dx="1406" dy="637" grid="1" gridSize="10" guides="1" tooltips="1" connect="1" arrows="1" fold="1" page="1" pageScale="1" pageWidth="1100" pageHeight="850" background="none" math="0" shadow="0">
      <root>
        <mxCell id="0" />
        <mxCell id="1" parent="0" />
        <mxCell id="gZhMBdNbkTw2TQp2bI8N-1" value="user" style="shape=umlActor;verticalLabelPosition=bottom;verticalAlign=top;html=1;outlineConnect=0;" vertex="1" parent="1">
          <mxGeometry x="120" y="160" width="30" height="60" as="geometry" />
        </mxCell>
        <mxCell id="gZhMBdNbkTw2TQp2bI8N-8" value="authentication" style="ellipse;whiteSpace=wrap;html=1;" vertex="1" parent="1">
          <mxGeometry x="250" y="40" width="140" height="70" as="geometry" />
        </mxCell>
        <mxCell id="gZhMBdNbkTw2TQp2bI8N-24" value="Создание нового проекта или выбор сохраненного" style="ellipse;whiteSpace=wrap;html=1;" vertex="1" parent="1">
          <mxGeometry x="250" y="150" width="140" height="70" as="geometry" />
        </mxCell>
        <mxCell id="gZhMBdNbkTw2TQp2bI8N-31" value="Добавление нового объекта&amp;nbsp;" style="ellipse;whiteSpace=wrap;html=1;" vertex="1" parent="1">
          <mxGeometry x="190" y="310" width="140" height="70" as="geometry" />
        </mxCell>
        <mxCell id="gZhMBdNbkTw2TQp2bI8N-33" value="Редактирование объекта" style="ellipse;whiteSpace=wrap;html=1;" vertex="1" parent="1">
          <mxGeometry x="390" y="280" width="140" height="70" as="geometry" />
        </mxCell>
        <mxCell id="gZhMBdNbkTw2TQp2bI8N-36" value="Удаление объекта" style="ellipse;whiteSpace=wrap;html=1;" vertex="1" parent="1">
          <mxGeometry x="750" y="390" width="140" height="70" as="geometry" />
        </mxCell>
        <mxCell id="gZhMBdNbkTw2TQp2bI8N-38" value="Движение объекта по оси X" style="ellipse;whiteSpace=wrap;html=1;" vertex="1" parent="1">
          <mxGeometry x="630" y="190" width="140" height="70" as="geometry" />
        </mxCell>
        <mxCell id="gZhMBdNbkTw2TQp2bI8N-40" value="Движение объекта&amp;nbsp;&amp;nbsp;по оси Y" style="ellipse;whiteSpace=wrap;html=1;" vertex="1" parent="1">
          <mxGeometry x="830" y="210" width="140" height="70" as="geometry" />
        </mxCell>
        <mxCell id="gZhMBdNbkTw2TQp2bI8N-44" value="Движение объекта&amp;nbsp;&amp;nbsp;по оси Z" style="ellipse;whiteSpace=wrap;html=1;" vertex="1" parent="1">
          <mxGeometry x="720" y="120" width="140" height="70" as="geometry" />
        </mxCell>
        <mxCell id="gZhMBdNbkTw2TQp2bI8N-46" value="Цвет объекта&amp;nbsp;" style="ellipse;whiteSpace=wrap;html=1;" vertex="1" parent="1">
          <mxGeometry x="930" y="380" width="140" height="70" as="geometry" />
        </mxCell>
        <mxCell id="gZhMBdNbkTw2TQp2bI8N-47" value="Видимость объекта&amp;nbsp;" style="ellipse;whiteSpace=wrap;html=1;" vertex="1" parent="1">
          <mxGeometry x="820" y="300" width="140" height="70" as="geometry" />
        </mxCell>
        <mxCell id="gZhMBdNbkTw2TQp2bI8N-50" value="&lt;font style=&quot;font-size: 12px;&quot; face=&quot;Arial, sans-serif&quot;&gt;&lt;span style=&quot;white-space-collapse: preserve;&quot;&gt;Создание нового выражения&lt;/span&gt;&lt;/font&gt;" style="ellipse;whiteSpace=wrap;html=1;" vertex="1" parent="1">
          <mxGeometry x="230" y="450" width="140" height="70" as="geometry" />
        </mxCell>
        <mxCell id="gZhMBdNbkTw2TQp2bI8N-51" value="&lt;font style=&quot;font-size: 12px;&quot; face=&quot;Arial, sans-serif&quot;&gt;&lt;span style=&quot;white-space-collapse: preserve;&quot;&gt;Изменение выражения&lt;/span&gt;&lt;/font&gt;" style="ellipse;whiteSpace=wrap;html=1;" vertex="1" parent="1">
          <mxGeometry x="450" y="400" width="140" height="70" as="geometry" />
        </mxCell>
        <mxCell id="gZhMBdNbkTw2TQp2bI8N-52" value="&lt;font style=&quot;font-size: 12px;&quot; face=&quot;Arial, sans-serif&quot;&gt;&lt;span style=&quot;white-space-collapse: preserve;&quot;&gt;Удаление выражения&lt;/span&gt;&lt;/font&gt;" style="ellipse;whiteSpace=wrap;html=1;" vertex="1" parent="1">
          <mxGeometry x="690" y="520" width="140" height="70" as="geometry" />
        </mxCell>
        <mxCell id="gZhMBdNbkTw2TQp2bI8N-53" value="" style="endArrow=block;dashed=1;endFill=0;endSize=12;html=1;rounded=0;entryX=0;entryY=0.5;entryDx=0;entryDy=0;" edge="1" parent="1" target="gZhMBdNbkTw2TQp2bI8N-8">
          <mxGeometry width="160" relative="1" as="geometry">
            <mxPoint x="150" y="180" as="sourcePoint" />
            <mxPoint x="310" y="180" as="targetPoint" />
          </mxGeometry>
        </mxCell>
        <mxCell id="gZhMBdNbkTw2TQp2bI8N-54" value="" style="endArrow=block;dashed=1;endFill=0;endSize=12;html=1;rounded=0;entryX=0.5;entryY=0;entryDx=0;entryDy=0;exitX=0.5;exitY=1;exitDx=0;exitDy=0;" edge="1" parent="1" source="gZhMBdNbkTw2TQp2bI8N-8" target="gZhMBdNbkTw2TQp2bI8N-24">
          <mxGeometry width="160" relative="1" as="geometry">
            <mxPoint x="310" y="110" as="sourcePoint" />
            <mxPoint x="470" y="110" as="targetPoint" />
          </mxGeometry>
        </mxCell>
        <mxCell id="gZhMBdNbkTw2TQp2bI8N-55" value="" style="endArrow=block;dashed=1;endFill=0;endSize=12;html=1;rounded=0;entryX=0.5;entryY=0;entryDx=0;entryDy=0;exitX=0.5;exitY=1;exitDx=0;exitDy=0;" edge="1" parent="1" target="gZhMBdNbkTw2TQp2bI8N-31">
          <mxGeometry width="160" relative="1" as="geometry">
            <mxPoint x="319.5" y="220" as="sourcePoint" />
            <mxPoint x="319.5" y="260" as="targetPoint" />
          </mxGeometry>
        </mxCell>
        <mxCell id="gZhMBdNbkTw2TQp2bI8N-57" value="" style="endArrow=block;dashed=1;endFill=0;endSize=12;html=1;rounded=0;entryX=0.311;entryY=-0.021;entryDx=0;entryDy=0;entryPerimeter=0;exitX=1;exitY=1;exitDx=0;exitDy=0;" edge="1" parent="1" source="gZhMBdNbkTw2TQp2bI8N-24" target="gZhMBdNbkTw2TQp2bI8N-33">
          <mxGeometry width="160" relative="1" as="geometry">
            <mxPoint x="480" y="130" as="sourcePoint" />
            <mxPoint x="390" y="240" as="targetPoint" />
          </mxGeometry>
        </mxCell>
        <mxCell id="gZhMBdNbkTw2TQp2bI8N-58" value="" style="endArrow=block;dashed=1;endFill=0;endSize=12;html=1;rounded=0;entryX=0;entryY=0.5;entryDx=0;entryDy=0;exitX=1;exitY=0.5;exitDx=0;exitDy=0;" edge="1" parent="1" source="gZhMBdNbkTw2TQp2bI8N-31" target="gZhMBdNbkTw2TQp2bI8N-33">
          <mxGeometry width="160" relative="1" as="geometry">
            <mxPoint x="389" y="310" as="sourcePoint" />
            <mxPoint x="389" y="380" as="targetPoint" />
          </mxGeometry>
        </mxCell>
        <mxCell id="gZhMBdNbkTw2TQp2bI8N-59" value="" style="endArrow=block;dashed=1;endFill=0;endSize=12;html=1;rounded=0;entryX=0;entryY=0.5;entryDx=0;entryDy=0;exitX=0.904;exitY=0.157;exitDx=0;exitDy=0;exitPerimeter=0;" edge="1" parent="1" source="gZhMBdNbkTw2TQp2bI8N-33" target="gZhMBdNbkTw2TQp2bI8N-38">
          <mxGeometry width="160" relative="1" as="geometry">
            <mxPoint x="520" y="280" as="sourcePoint" />
            <mxPoint x="561" y="285" as="targetPoint" />
          </mxGeometry>
        </mxCell>
        <mxCell id="gZhMBdNbkTw2TQp2bI8N-60" value="" style="endArrow=block;dashed=1;endFill=0;endSize=12;html=1;rounded=0;entryX=0;entryY=0.5;entryDx=0;entryDy=0;exitX=0.968;exitY=0.643;exitDx=0;exitDy=0;exitPerimeter=0;" edge="1" parent="1" source="gZhMBdNbkTw2TQp2bI8N-33" target="gZhMBdNbkTw2TQp2bI8N-46">
          <mxGeometry width="160" relative="1" as="geometry">
            <mxPoint x="570" y="312.5" as="sourcePoint" />
            <mxPoint x="611" y="317.5" as="targetPoint" />
          </mxGeometry>
        </mxCell>
        <mxCell id="gZhMBdNbkTw2TQp2bI8N-61" value="" style="endArrow=block;dashed=1;endFill=0;endSize=12;html=1;rounded=0;entryX=0;entryY=0.5;entryDx=0;entryDy=0;exitX=0.5;exitY=0;exitDx=0;exitDy=0;" edge="1" parent="1" source="gZhMBdNbkTw2TQp2bI8N-33" target="gZhMBdNbkTw2TQp2bI8N-44">
          <mxGeometry width="160" relative="1" as="geometry">
            <mxPoint x="719" y="252.5" as="sourcePoint" />
            <mxPoint x="760" y="257.5" as="targetPoint" />
          </mxGeometry>
        </mxCell>
        <mxCell id="gZhMBdNbkTw2TQp2bI8N-62" value="" style="endArrow=block;dashed=1;endFill=0;endSize=12;html=1;rounded=0;entryX=0;entryY=0.5;entryDx=0;entryDy=0;" edge="1" parent="1" source="gZhMBdNbkTw2TQp2bI8N-33" target="gZhMBdNbkTw2TQp2bI8N-47">
          <mxGeometry width="160" relative="1" as="geometry">
            <mxPoint x="719" y="360" as="sourcePoint" />
            <mxPoint x="760" y="365" as="targetPoint" />
          </mxGeometry>
        </mxCell>
        <mxCell id="gZhMBdNbkTw2TQp2bI8N-64" value="" style="endArrow=block;dashed=1;endFill=0;endSize=12;html=1;rounded=0;entryX=0;entryY=0.5;entryDx=0;entryDy=0;" edge="1" parent="1" target="gZhMBdNbkTw2TQp2bI8N-40">
          <mxGeometry width="160" relative="1" as="geometry">
            <mxPoint x="530" y="315" as="sourcePoint" />
            <mxPoint x="571" y="320" as="targetPoint" />
          </mxGeometry>
        </mxCell>
        <mxCell id="gZhMBdNbkTw2TQp2bI8N-65" value="" style="endArrow=block;dashed=1;endFill=0;endSize=12;html=1;rounded=0;entryX=0;entryY=0.5;entryDx=0;entryDy=0;exitX=0.946;exitY=0.764;exitDx=0;exitDy=0;exitPerimeter=0;" edge="1" parent="1" source="gZhMBdNbkTw2TQp2bI8N-33" target="gZhMBdNbkTw2TQp2bI8N-36">
          <mxGeometry width="160" relative="1" as="geometry">
            <mxPoint x="530" y="320" as="sourcePoint" />
            <mxPoint x="561" y="325" as="targetPoint" />
          </mxGeometry>
        </mxCell>
        <mxCell id="gZhMBdNbkTw2TQp2bI8N-66" value="" style="endArrow=block;dashed=1;endFill=0;endSize=12;html=1;rounded=0;entryX=0.5;entryY=0;entryDx=0;entryDy=0;exitX=0.5;exitY=1;exitDx=0;exitDy=0;" edge="1" parent="1" source="gZhMBdNbkTw2TQp2bI8N-31" target="gZhMBdNbkTw2TQp2bI8N-50">
          <mxGeometry width="160" relative="1" as="geometry">
            <mxPoint x="469" y="390" as="sourcePoint" />
            <mxPoint x="510" y="395" as="targetPoint" />
          </mxGeometry>
        </mxCell>
        <mxCell id="gZhMBdNbkTw2TQp2bI8N-67" value="" style="endArrow=block;dashed=1;endFill=0;endSize=12;html=1;rounded=0;exitX=0.5;exitY=1;exitDx=0;exitDy=0;" edge="1" parent="1" source="gZhMBdNbkTw2TQp2bI8N-33" target="gZhMBdNbkTw2TQp2bI8N-50">
          <mxGeometry width="160" relative="1" as="geometry">
            <mxPoint x="479" y="400" as="sourcePoint" />
            <mxPoint x="520" y="405" as="targetPoint" />
          </mxGeometry>
        </mxCell>
        <mxCell id="gZhMBdNbkTw2TQp2bI8N-68" value="" style="endArrow=block;dashed=1;endFill=0;endSize=12;html=1;rounded=0;entryX=0;entryY=0.5;entryDx=0;entryDy=0;exitX=1;exitY=0.5;exitDx=0;exitDy=0;" edge="1" parent="1" source="gZhMBdNbkTw2TQp2bI8N-50" target="gZhMBdNbkTw2TQp2bI8N-51">
          <mxGeometry width="160" relative="1" as="geometry">
            <mxPoint x="489" y="410" as="sourcePoint" />
            <mxPoint x="530" y="415" as="targetPoint" />
          </mxGeometry>
        </mxCell>
        <mxCell id="gZhMBdNbkTw2TQp2bI8N-69" value="" style="endArrow=block;dashed=1;endFill=0;endSize=12;html=1;rounded=0;exitX=1;exitY=1;exitDx=0;exitDy=0;entryX=0;entryY=0.5;entryDx=0;entryDy=0;" edge="1" parent="1" source="gZhMBdNbkTw2TQp2bI8N-50" target="gZhMBdNbkTw2TQp2bI8N-52">
          <mxGeometry width="160" relative="1" as="geometry">
            <mxPoint x="499" y="420" as="sourcePoint" />
            <mxPoint x="690" y="650" as="targetPoint" />
          </mxGeometry>
        </mxCell>
        <mxCell id="gZhMBdNbkTw2TQp2bI8N-70" value="" style="endArrow=block;dashed=1;endFill=0;endSize=12;html=1;rounded=0;entryX=0.239;entryY=0.057;entryDx=0;entryDy=0;entryPerimeter=0;" edge="1" parent="1" target="gZhMBdNbkTw2TQp2bI8N-52">
          <mxGeometry width="160" relative="1" as="geometry">
            <mxPoint x="580" y="460" as="sourcePoint" />
            <mxPoint x="550" y="435" as="targetPoint" />
          </mxGeometry>
        </mxCell>
      </root>
    </mxGraphModel>
  </diagram>
</mxfile>
